<svg width="1001" height="600" viewBox="0 0 1001 600" fill="none" xmlns="http://www.w3.org/2000/svg">
<g id="Frame 1">
<g id="Right side">
<path id="Polygon 22" opacity="0.4" d="M529 393.75L583.127 300H474.873L529 393.75Z" fill="#B8E1DF"/>
<path id="Polygon 43" d="M623 450L536.397 300L709.603 300L623 450Z" fill="#80A3A0"/>
<path id="Polygon 48" d="M876 112.5L984.253 300H767.747L876 112.5Z" fill="#B8E1DF" fill-opacity="0.4"/>
<path id="Polygon 18" d="M505.661 300.5L678 599L850.339 300.5H505.661Z" stroke="black"/>
<path id="Polygon 34" d="M678 0L504.795 300H851.205L678 0Z" fill="#B8E1DF"/>
<path id="Polygon 2" d="M523 187.5L587.952 300H458.048L523 187.5Z" fill="black"/>
<path id="Polygon 1" opacity="0.4" d="M523 225L566.301 300H479.699L523 225Z" fill="#C4C4C4"/>
<path id="Polygon 8" opacity="0.4" d="M523 375L479.699 300L566.301 300L523 375Z" fill="#C4C4C4"/>
<path id="Polygon 41" d="M570 375L526.699 300L613.301 300L570 375Z" fill="#C4C4C4"/>
<path id="Polygon 42" d="M613 450L569.699 375L656.301 375L613 450Z" fill="black"/>
<g id="Polygon 40" opacity="0.4" filter="url(#filter0_d_8_81)">
<path d="M602 450L515.397 300L688.603 300L602 450Z" fill="#B8E1DF" fill-opacity="0.4" shape-rendering="crispEdges"/>
</g>
<path id="Polygon 44" opacity="0.4" d="M894.596 209.5L843.5 121L792.405 209.5L894.596 209.5Z" stroke="black"/>
<path id="Polygon 49" d="M926 393.5L871.873 299.75H980.127L926 393.5Z" fill="black" fill-opacity="0.2"/>
<path id="Polygon 50" d="M908 187.5L972.952 300L843.048 300L908 187.5Z" fill="#80A3A0"/>
<path id="Polygon 51" d="M966.5 337.25L944.849 299.75H988.151L966.5 337.25Z" fill="black"/>
<path id="Polygon 52" d="M921.5 222.75L943.151 260.25H899.849L921.5 222.75Z" fill="black"/>
<path id="Polygon 53" d="M923.25 337.25L901.599 299.75H944.901L923.25 337.25Z" fill="#B8E1DF" fill-opacity="0.4"/>
<path id="Polygon 54" d="M945 374.75L923.349 337.25H966.651L945 374.75Z" fill="#B8E1DF" fill-opacity="0.4"/>
<path id="Polygon 55" d="M901.5 374.75L879.849 337.25H923.151L901.5 374.75Z" fill="#B8E1DF" fill-opacity="0.4"/>
<path id="Polygon 56" d="M879 243.5L846.524 299.75H911.476L879 243.5Z" fill="#B8E1DF" fill-opacity="0.4"/>
<path id="Polygon 57" d="M953.11 244L921.5 298.75L889.89 244H953.11Z" stroke="#C4C4C4"/>
<path id="Polygon 58" d="M923.25 374.75L901.599 337.25H944.901L923.25 374.75Z" fill="black"/>
<path id="Polygon 35" d="M723 0L549.795 300H896.205L723 0Z" fill="#B8E1DF" fill-opacity="0.2"/>
<path id="Polygon 37" d="M713 75L842.904 300H583.096L713 75Z" fill="black"/>
<path id="Polygon 39" d="M742.5 525L872.404 300H612.596L742.5 525Z" fill="black" fill-opacity="0.25"/>
<path id="Polygon 59" d="M668 525L797.904 300H538.096L668 525Z" fill="black" fill-opacity="0.25"/>
<path id="Polygon 38" d="M787 75L916.904 300H657.096L787 75Z" fill="#B8E1DF" fill-opacity="0.4"/>
<path id="Polygon 45" d="M843.5 300L817.519 255L869.481 255L843.5 300Z" fill="black"/>
<path id="Polygon 47" d="M817.5 255L791.519 210L843.481 210L817.5 255Z" fill="#B8E1DF" fill-opacity="0.4"/>
<path id="Polygon 46" d="M869.5 255L843.519 210L895.481 210L869.5 255Z" fill="black"/>
</g>
<g id="Left side">
<path id="Polygon 6" d="M415 187L479.952 299.5H350.048L415 187Z" fill="#B8E1DF" fill-opacity="0.2"/>
<path id="Polygon 28" d="M65.5 206.25L119.627 300H11.3734L65.5 206.25Z" fill="black" fill-opacity="0.2"/>
<path id="Polygon 11" d="M220 75L349.904 300H90.0962L220 75Z" fill="black"/>
<path id="Polygon 17" d="M127.661 299.5L300 1L472.339 299.5H127.661Z" stroke="black"/>
<path id="Polygon 33" d="M127.661 300.5L300 599L472.339 300.5H127.661Z" stroke="black"/>
<path id="Polygon 12" d="M275 525L145.096 300L404.904 300L275 525Z" fill="#D8D7D7"/>
<path id="Polygon 16" d="M145 450.5L101.699 375.5L188.301 375.5L145 450.5Z" fill="#C4C4C4"/>
<path id="Polygon 15" d="M91 393.75L36.8734 300L145.127 300L91 393.75Z" fill="#80A3A0"/>
<path id="Polygon 9" d="M350 300L306.699 225L393.301 225L350 300Z" fill="#C4C4C4"/>
<path id="Polygon 5" d="M415 224.75L458.301 299.75H371.699L415 224.75Z" fill="#C4C4C4"/>
<g id="Polygon 7" filter="url(#filter1_d_8_81)">
<path d="M393.25 224.5L436.551 299.5H349.949L393.25 224.5Z" fill="#B8E1DF" fill-opacity="0.4" shape-rendering="crispEdges"/>
</g>
<path id="Polygon 10" d="M350 150L393.301 225H306.699L350 150Z" fill="black"/>
<path id="Polygon 14" d="M145 300L166.651 337.5H123.349L145 300Z" fill="black"/>
<path id="Polygon 32" d="M25 262.5L46.6506 300H3.34937L25 262.5Z" fill="black"/>
<path id="Polygon 25" d="M70 377L48.3494 339.5H91.6506L70 377Z" fill="black"/>
<path id="Polygon 27" d="M90 300L68.3494 262.5H111.651L90 300Z" fill="#C4C4C4"/>
<path id="Polygon 19" d="M123 338L144.651 375.5H101.349L123 338Z" fill="black"/>
<path id="Polygon 20" d="M167 338L188.651 375.5H145.349L167 338Z" fill="#B8E1DF" fill-opacity="0.4"/>
<path id="Polygon 26" d="M68.25 262.5L89.9006 300H46.5994L68.25 262.5Z" fill="#B8E1DF" fill-opacity="0.4"/>
<path id="Polygon 31" d="M46.5 225L68.1506 262.5H24.8494L46.5 225Z" fill="#B8E1DF" fill-opacity="0.4"/>
<path id="Polygon 29" d="M90 225L111.651 262.5H68.3494L90 225Z" fill="#B8E1DF" fill-opacity="0.4"/>
<path id="Polygon 23" d="M112.5 356.25L144.976 300H80.024L112.5 356.25Z" fill="#B8E1DF" fill-opacity="0.4"/>
<path id="Polygon 24" d="M38.3901 355.75L70 301L101.61 355.75H38.3901Z" stroke="#C4C4C4"/>
<path id="Polygon 3" d="M415 412.5L350.048 300L479.952 300L415 412.5Z" fill="black"/>
<path id="Polygon 4" d="M415 375L371.699 300L458.301 300L415 375Z" fill="#C4C4C4"/>
<path id="Polygon 13" opacity="0.4" d="M350 450L263.397 300L436.603 300L350 450Z" fill="black"/>
<path id="Polygon 30" d="M68.25 225L89.9006 262.5H46.5994L68.25 225Z" fill="black"/>
<path id="Polygon 60" d="M321 525L450.904 300H191.096L321 525Z" fill="black" fill-opacity="0.25"/>
<path id="Polygon 61 - Bridge Cover" d="M469.25 280.75L480.075 299.5H458.425L469.25 280.75Z" fill="black"/>
</g>
</g>
<defs>
<filter id="filter0_d_8_81" x="504.397" y="299" width="184.205" height="152" filterUnits="userSpaceOnUse" color-interpolation-filters="sRGB">
<feFlood flood-opacity="0" result="BackgroundImageFix"/>
<feColorMatrix in="SourceAlpha" type="matrix" values="0 0 0 0 0 0 0 0 0 0 0 0 0 0 0 0 0 0 127 0" result="hardAlpha"/>
<feOffset dx="-10"/>
<feGaussianBlur stdDeviation="0.5"/>
<feComposite in2="hardAlpha" operator="out"/>
<feColorMatrix type="matrix" values="0 0 0 0 0 0 0 0 0 0 0 0 0 0 0 0 0 0 0.25 0"/>
<feBlend mode="normal" in2="BackgroundImageFix" result="effect1_dropShadow_8_81"/>
<feBlend mode="normal" in="SourceGraphic" in2="effect1_dropShadow_8_81" result="shape"/>
</filter>
<filter id="filter1_d_8_81" x="349.949" y="224.5" width="97.6025" height="80" filterUnits="userSpaceOnUse" color-interpolation-filters="sRGB">
<feFlood flood-opacity="0" result="BackgroundImageFix"/>
<feColorMatrix in="SourceAlpha" type="matrix" values="0 0 0 0 0 0 0 0 0 0 0 0 0 0 0 0 0 0 127 0" result="hardAlpha"/>
<feOffset dx="10" dy="4"/>
<feGaussianBlur stdDeviation="0.5"/>
<feComposite in2="hardAlpha" operator="out"/>
<feColorMatrix type="matrix" values="0 0 0 0 0 0 0 0 0 0 0 0 0 0 0 0 0 0 0.25 0"/>
<feBlend mode="normal" in2="BackgroundImageFix" result="effect1_dropShadow_8_81"/>
<feBlend mode="normal" in="SourceGraphic" in2="effect1_dropShadow_8_81" result="shape"/>
</filter>
</defs>
</svg>
