<svg width="415" height="350" viewBox="0 0 415 350" fill="none" xmlns="http://www.w3.org/2000/svg">
<g id="Logo">
<path id="&#60;/&#62; image 1 (Traced)" fill-rule="evenodd" clip-rule="evenodd" d="M283.623 171.281C282.037 172.445 281.933 173.006 282.949 174.904C285.07 178.867 282.511 187.921 274.159 206C267.773 219.823 252.748 244.885 240.717 261.782C233.752 271.563 235.085 275.263 246.108 276.741C251.07 277.407 252.887 275.888 252.821 271.13C252.764 266.999 256.708 258.447 263.488 248C274.224 231.459 284.611 209.157 293.659 183.225C296.045 176.386 296.1 175.802 294.576 173.475C293.684 172.114 292.177 170.994 291.227 170.986C290.277 170.979 288.6 170.732 287.5 170.438C286.4 170.145 284.656 170.524 283.623 171.281ZM304.146 196.057C302.188 197.248 300.992 198.707 301.182 199.674C301.638 201.996 311.452 206.68 320.174 208.738C324.282 209.707 327.721 210.835 327.816 211.244C327.911 211.653 323.379 216.303 317.744 221.577C312.11 226.85 307.362 231.762 307.194 232.491C306.754 234.399 312.078 239 314.726 239C316.311 239 317.381 238.042 318.357 235.75C319.779 232.412 330.626 221.489 339.5 214.46C342.25 212.282 344.796 210.091 345.157 209.591C346.974 207.078 342.244 204 336.565 204C331.853 204 316.54 199.401 311.587 196.498L307.429 194.061L304.146 196.057ZM230.281 202.988C226.575 206.359 215.179 210.136 195.75 214.43C190.328 215.629 192.968 221.476 200.694 225.38C204.903 227.506 214.957 235.907 222.787 243.84C228.67 249.8 229.294 250.167 232.505 249.565C236.394 248.836 239.179 246.537 238.374 244.721C237.789 243.402 229.852 236.695 218.758 228.145C214.937 225.2 212.19 222.452 212.655 222.039C213.12 221.626 217.55 220.049 222.5 218.535C239.242 213.414 242.702 210.49 239.036 204.559C237.38 201.88 234.928 199.81 233.668 200.029C233.576 200.045 232.051 201.377 230.281 202.988Z" fill="black"/>
<path id="spiral (Traced)" fill-rule="evenodd" clip-rule="evenodd" d="M228.109 54.4543C182.279 56.8173 140.336 68.1091 123.639 82.58C111.7 92.928 110.889 103.394 121.139 114.83C144.458 140.846 238.115 156.938 305.762 146.551C312.064 145.584 317.444 144.576 317.716 144.313C318.901 143.165 317.011 143.004 312.848 143.897C306.205 145.323 281.256 145.831 265.853 144.854C235.591 142.933 196.389 133.88 166.061 121.806C150.343 115.55 138.473 105.373 138.587 98.2539C138.698 91.4027 154.138 80.5861 170.957 75.5794C190.664 69.7111 221.059 66.8363 257.099 67.43C288.508 67.948 300.609 69.3011 325.161 75.0414C358.999 82.9525 372.385 91.9153 362.445 100.008C354.708 106.309 339.788 110.862 319.873 112.998C302.672 114.843 254.038 113.782 238.891 111.23C223.357 108.614 216.048 106.605 210.322 103.381C204.414 100.054 203.894 98.5309 207.48 95.0592C210.869 91.7774 219.813 88.9571 233.516 86.8476C258.513 82.9998 301.288 89.4977 298.39 96.7019C296.119 102.347 271.695 105.883 253.021 103.271C249.728 102.81 247.289 102.716 247.6 103.061C249.693 105.379 275.42 107.253 285.678 105.835C293.251 104.788 299.136 102.553 302.035 99.623C306.361 95.2502 304.91 91.9973 296.741 87.7622C288.014 83.238 273.646 80.2972 254.822 79.1818C207.06 76.35 176.664 93.9107 201.304 110.099C216.909 120.351 265.79 127.736 304.738 125.724C336.482 124.084 348.946 121.913 362.837 115.607C373.692 110.678 378.541 107.015 381.314 101.654C384.131 96.2081 384.309 92.3734 381.928 88.3546C375.731 77.8904 359.896 69.6302 334.669 63.7031C302.673 56.1847 262.374 52.687 228.109 54.4543Z" fill="black"/>
<path id="Cup (Traced)" fill-rule="evenodd" clip-rule="evenodd" d="M218 1.04601C188.341 3.87301 155.632 10.89 136.718 18.483C110.638 28.952 95.217 41.55 87.102 59.014C81.992 70.011 81.799 73.665 84.015 117.5C84.98 136.598 86.304 143.343 94.616 171.5C102.793 199.198 115.994 225.857 132.112 247.22C140.305 258.081 159.202 276.826 170.5 285.3C180.643 292.909 197.555 301.673 209.5 305.512C247.312 317.664 290.147 310.299 322.902 286.013C375.288 247.171 410.044 173.402 414.545 91.5C415.16 80.316 415.036 79.041 412.729 72.758C403.778 48.377 380.467 29.595 342.935 16.524C322.528 9.41701 297.198 4.52001 262.5 0.974005C252.335 -0.0649948 229.264 -0.0269946 218 1.04601ZM280 10.051C289.767 10.937 296.684 11.876 313 14.528C328.647 17.071 350.026 24.013 364.5 31.251C383.456 40.731 398.711 54.677 405.956 69.152C409.748 76.728 410 77.771 410 85.892C410 101.318 405.768 129.757 400.833 147.5C385.471 202.728 355.785 249.042 320.191 273.312C317.061 275.446 309.1 279.844 302.5 283.085C265.158 301.424 220.899 299.66 184.92 278.4C157.491 262.191 138.014 238.162 127.556 207.63C122.65 193.306 120.895 183.436 120.301 166.833C119.779 152.221 119.885 150.868 121.885 146.737C125.891 138.461 131.82 138.063 154.562 144.539C191.328 155.01 209.535 157.391 253 157.413C290.722 157.432 300.109 156.52 324.712 150.449C348.526 144.572 361.408 139.357 376.812 129.359C387.002 122.745 393.917 116.385 399.492 108.5C406.892 98.033 406.473 97.448 397.869 106.23C393.266 110.928 386.575 116.663 383 118.974C350.253 140.146 295.292 151.017 241.045 147.053C202.159 144.212 167.451 135.734 141.5 122.74C127.892 115.926 120.889 111.033 111.766 101.963C101.3 91.558 96.451 81.818 96.602 71.5C96.733 62.559 99.276 56.703 106.211 49.37C115.797 39.235 132.991 29.658 154.143 22.672C164.536 19.24 187.45 14.306 199.008 13.011C204.229 12.426 211.2 11.513 214.5 10.983C223.577 9.52301 226.828 9.35001 248.5 9.17201C259.5 9.08101 273.675 9.47701 280 10.051Z" fill="black"/>
<path id="plate (Traced)" fill-rule="evenodd" clip-rule="evenodd" d="M338.419 286.1C344.527 291.683 345.35 294.489 342.497 300.006C337.929 308.84 315.746 319.268 287.5 325.861C256.908 333.001 234.969 335.391 206.5 334.684C175.116 333.906 157.053 329.72 148.601 321.267C145.594 318.261 145 316.964 145 313.41C145 309.062 147.041 305.702 153 300.244C155.655 297.812 176.607 287 178.665 287C179.334 287 180.202 286.481 180.594 285.848C182.672 282.486 150.627 292.492 137.584 299.277C123.167 306.778 114.947 316.843 117.103 324.358C118.948 330.793 127.559 337.269 139.81 341.435C155.605 346.808 172.224 348.971 198.279 349.046C245.767 349.183 295.031 339.437 327.539 323.474C355.791 309.601 360.959 294.719 341.185 284.179C332.754 279.685 331.985 280.219 338.419 286.1Z" fill="black"/>
<path id="handle (Traced)" fill-rule="evenodd" clip-rule="evenodd" d="M30.4925 70.5928C10.4755 74.1828 -1.7205 93.2598 0.197503 117.979C3.2065 156.757 33.3415 188.311 81.5925 203.207C85.5795 204.438 88.8425 205.142 88.8425 204.771C88.8425 204.4 86.7405 202.982 84.1715 201.619C81.6025 200.256 76.0905 196.701 71.9215 193.718C48.1985 176.744 34.6645 158.932 31.7205 140.81C29.3355 126.127 34.2515 112.728 43.8425 107.777C52.1805 103.473 64.8185 106.372 74.4045 114.789L78.0405 117.981L77.2985 100.046C76.4525 79.6178 77.2965 81.3788 66.0725 76.6358C52.6615 70.9688 40.1995 68.8518 30.4925 70.5928Z" fill="black"/>
</g>
</svg>
